<?xml version="1.0" encoding="UTF-8"?>
<svg xmlns="http://www.w3.org/2000/svg" xmlns:xlink="http://www.w3.org/1999/xlink" width="32px" height="32px" viewBox="0 0 384 384" version="1.1">
<g id="surface1">
<path style=" stroke:none;fill-rule:nonzero;fill:rgb(81.176471%,94.117647%,61.960784%);fill-opacity:1;" d="M 299.664062 207.507812 C 298.261719 178.851562 287.40625 167.019531 256.109375 167.019531 L 256.109375 135.796875 C 256.109375 102.070312 221.136719 79.589844 198.65625 79.589844 L 150.996094 79.589844 C 111.652344 79.589844 84.175781 107.691406 84.175781 147.035156 L 84.175781 236.964844 C 84.175781 275.683594 111.652344 304.410156 151.621094 304.410156 L 233.003906 304.410156 C 267.804688 304.410156 293.324219 281.933594 298.75 249.945312 M 155.992188 135.796875 L 196.78125 135.796875 C 205.523438 135.796875 212.394531 142.664062 212.394531 151.40625 C 212.394531 160.152344 205.527344 167.019531 196.78125 167.019531 L 155.992188 167.019531 C 147.25 167.019531 140.378906 160.152344 140.378906 151.40625 C 140.378906 142.664062 147.25 135.796875 155.992188 135.796875 Z M 228.007812 248.203125 L 155.992188 248.203125 C 147.25 248.203125 140.378906 241.335938 140.378906 232.59375 C 140.378906 223.847656 147.25 216.980469 155.992188 216.980469 L 228.007812 216.980469 C 236.75 216.980469 243.621094 223.847656 243.621094 232.59375 C 243.621094 241.335938 236.75 248.203125 228.007812 248.203125 Z M 228.007812 248.203125 "/>
<path style=" stroke:none;fill-rule:nonzero;fill:rgb(31.372549%,48.627451%,36.078431%);fill-opacity:1;" d="M 233.003906 315.019531 L 151.621094 315.019531 C 106.394531 315.019531 73.566406 282.191406 73.566406 236.964844 L 73.566406 147.035156 C 73.566406 101.808594 106.128906 68.984375 150.996094 68.984375 L 198.65625 68.984375 C 212.785156 68.984375 229.65625 75.875 242.691406 86.96875 C 258.183594 100.160156 266.71875 117.5 266.71875 135.796875 L 266.71875 156.898438 C 279.800781 158.195312 289.390625 162.085938 296.449219 168.871094 C 305 177.09375 309.390625 189.207031 310.261719 206.988281 C 310.546875 212.839844 306.035156 217.816406 300.183594 218.101562 C 294.335938 218.375 289.355469 213.878906 289.070312 208.023438 C 287.902344 184.160156 280.820312 177.628906 256.109375 177.628906 C 250.25 177.628906 245.503906 172.878906 245.503906 167.019531 L 245.503906 135.796875 C 245.503906 107.953125 214.742188 90.199219 198.65625 90.199219 L 150.996094 90.199219 C 117.898438 90.199219 94.785156 113.570312 94.785156 147.035156 L 94.785156 236.964844 C 94.785156 270.429688 118.15625 293.800781 151.621094 293.800781 L 233.003906 293.800781 C 261.886719 293.800781 283.585938 275.890625 288.292969 248.171875 C 289.273438 242.394531 294.746094 238.503906 300.523438 239.488281 C 306.300781 240.46875 310.1875 245.945312 309.207031 251.71875 C 302.785156 289.582031 272.160156 315.019531 233.003906 315.019531 Z M 228.007812 258.8125 L 155.992188 258.8125 C 141.289062 258.8125 129.773438 247.296875 129.773438 232.59375 C 129.773438 217.890625 141.289062 206.371094 155.992188 206.371094 L 228.007812 206.371094 C 242.710938 206.371094 254.226562 217.890625 254.226562 232.59375 C 254.226562 247.296875 242.710938 258.8125 228.007812 258.8125 Z M 155.992188 227.589844 C 153.089844 227.589844 150.988281 229.691406 150.988281 232.59375 C 150.988281 235.492188 153.089844 237.597656 155.992188 237.597656 L 228.007812 237.597656 C 230.90625 237.597656 233.011719 235.492188 233.011719 232.59375 C 233.011719 229.691406 230.90625 227.589844 228.007812 227.589844 Z M 196.78125 177.628906 L 155.992188 177.628906 C 141.289062 177.628906 129.773438 166.109375 129.773438 151.40625 C 129.773438 136.703125 141.289062 125.1875 155.992188 125.1875 L 196.78125 125.1875 C 211.484375 125.1875 223.003906 136.703125 223.003906 151.40625 C 223.003906 166.109375 211.484375 177.628906 196.78125 177.628906 Z M 155.992188 146.402344 C 153.089844 146.402344 150.988281 148.507812 150.988281 151.40625 C 150.988281 154.308594 153.089844 156.414062 155.992188 156.414062 L 196.78125 156.414062 C 199.683594 156.414062 201.789062 154.308594 201.789062 151.40625 C 201.789062 148.507812 199.683594 146.402344 196.78125 146.402344 Z M 155.992188 146.402344 "/>
<path style=" stroke:none;fill-rule:nonzero;fill:rgb(31.372549%,48.627451%,36.078431%);fill-opacity:1;" d="M 45.570312 104.914062 C 39.710938 104.914062 34.960938 100.164062 34.960938 94.304688 L 34.960938 45.570312 C 34.960938 39.710938 39.710938 34.960938 45.570312 34.960938 L 94.304688 34.960938 C 100.164062 34.960938 104.914062 39.710938 104.914062 45.570312 C 104.914062 51.429688 100.164062 56.179688 94.304688 56.179688 L 56.175781 56.179688 L 56.175781 94.304688 C 56.175781 100.164062 51.429688 104.914062 45.570312 104.914062 Z M 45.570312 104.914062 "/>
<path style=" stroke:none;fill-rule:nonzero;fill:rgb(31.372549%,48.627451%,36.078431%);fill-opacity:1;" d="M 338.429688 349.039062 L 289.695312 349.039062 C 283.835938 349.039062 279.085938 344.289062 279.085938 338.429688 C 279.085938 332.570312 283.835938 327.820312 289.695312 327.820312 L 327.820312 327.820312 L 327.820312 289.695312 C 327.820312 283.835938 332.570312 279.085938 338.429688 279.085938 C 344.289062 279.085938 349.039062 283.835938 349.039062 289.695312 L 349.039062 338.429688 C 349.039062 344.289062 344.289062 349.039062 338.429688 349.039062 Z M 338.429688 349.039062 "/>
<path style=" stroke:none;fill-rule:nonzero;fill:rgb(31.372549%,48.627451%,36.078431%);fill-opacity:1;" d="M 373.390625 384 L 10.609375 384 C 4.75 384 0 379.25 0 373.390625 L 0 10.609375 C 0 4.75 4.75 0 10.609375 0 L 373.394531 0 C 379.25 0 384 4.75 384 10.609375 L 384 373.394531 C 384 379.25 379.25 384 373.390625 384 Z M 21.214844 362.785156 L 362.785156 362.785156 L 362.785156 21.214844 L 21.214844 21.214844 Z M 21.214844 362.785156 "/>
</g>
</svg>
